<mxfile host="app.diagrams.net" modified="2024-04-25T06:05:28.495Z" agent="Mozilla/5.0 (Windows NT 10.0; Win64; x64) AppleWebKit/537.36 (KHTML, like Gecko) Chrome/123.0.0.0 Safari/537.36" etag="PSiAHdNUkpRefH_3TNVn" version="24.3.0" type="device">
  <diagram id="kgpKYQtTHZ0yAKxKKP6v" name="Page-1">
    <mxGraphModel dx="1050" dy="530" grid="1" gridSize="10" guides="1" tooltips="1" connect="1" arrows="1" fold="1" page="1" pageScale="1" pageWidth="850" pageHeight="1100" math="0" shadow="0">
      <root>
        <mxCell id="0" />
        <mxCell id="1" parent="0" />
        <mxCell id="CcWdK4bwqoYezzGv7H-g-6" value="YumaCSoil3-YumaHarvC09" style="shape=note;whiteSpace=wrap;html=1;backgroundOutline=1;fontColor=#000000;darkOpacity=0.05;fillColor=#FFF9B2;strokeColor=none;fillStyle=solid;direction=north;gradientDirection=north;gradientColor=#FFF2A1;shadow=1;size=20;pointerEvents=1;" parent="1" vertex="1">
          <mxGeometry x="150" y="810" width="76" height="45" as="geometry" />
        </mxCell>
        <mxCell id="3nuBFxr9cyL0pnOWT2aG-1" value="current workflow&#xa;nextflow (hpc), multiqc (apptainer)" style="shape=table;childLayout=tableLayout;startSize=40;collapsible=0;recursiveResize=0;expand=0;fillColor=none;fontStyle=1" parent="1" vertex="1">
          <mxGeometry x="190" y="220" width="1580" height="900.0000000000002" as="geometry" />
        </mxCell>
        <mxCell id="3nuBFxr9cyL0pnOWT2aG-3" value="hpc" style="shape=tableRow;horizontal=0;swimlaneHead=0;swimlaneBody=0;top=0;left=0;bottom=0;right=0;fillColor=none;points=[[0,0.5],[1,0.5]];portConstraint=eastwest;startSize=40;collapsible=0;recursiveResize=0;expand=0;fontStyle=1;" parent="3nuBFxr9cyL0pnOWT2aG-1" vertex="1">
          <mxGeometry y="40" width="1580" height="180" as="geometry" />
        </mxCell>
        <mxCell id="3nuBFxr9cyL0pnOWT2aG-4" value="quality control" style="swimlane;swimlaneHead=0;swimlaneBody=0;connectable=0;fillColor=none;startSize=40;collapsible=0;recursiveResize=0;expand=0;fontStyle=1;" parent="3nuBFxr9cyL0pnOWT2aG-3" vertex="1">
          <mxGeometry x="40" width="240" height="180" as="geometry">
            <mxRectangle width="240" height="180" as="alternateBounds" />
          </mxGeometry>
        </mxCell>
        <mxCell id="3nuBFxr9cyL0pnOWT2aG-8" value="assembly" style="swimlane;swimlaneHead=0;swimlaneBody=0;connectable=0;fillColor=none;startSize=40;collapsible=0;recursiveResize=0;expand=0;fontStyle=1;" parent="3nuBFxr9cyL0pnOWT2aG-3" vertex="1">
          <mxGeometry x="280" width="370" height="180" as="geometry">
            <mxRectangle width="370" height="180" as="alternateBounds" />
          </mxGeometry>
        </mxCell>
        <mxCell id="ZopNrPVhyXaILG_1VpYT-9" value=".gfa assembly graphs" style="shape=parallelogram;perimeter=parallelogramPerimeter;whiteSpace=wrap;html=1;fixedSize=1;" parent="3nuBFxr9cyL0pnOWT2aG-8" vertex="1">
          <mxGeometry x="1" y="107.5" width="98" height="41" as="geometry" />
        </mxCell>
        <mxCell id="ZopNrPVhyXaILG_1VpYT-14" value="summary checkM abundance visual" style="shape=parallelogram;perimeter=parallelogramPerimeter;whiteSpace=wrap;html=1;fixedSize=1;" parent="3nuBFxr9cyL0pnOWT2aG-8" vertex="1">
          <mxGeometry x="119.5" y="107.5" width="126.5" height="41" as="geometry" />
        </mxCell>
        <mxCell id="9NF7PJcUpYFdxQOIIQIQ-89" value="annotation" style="swimlane;swimlaneHead=0;swimlaneBody=0;connectable=0;fillColor=none;startSize=40;collapsible=0;recursiveResize=0;expand=0;fontStyle=1;" parent="3nuBFxr9cyL0pnOWT2aG-3" vertex="1">
          <mxGeometry x="650" width="300" height="180" as="geometry">
            <mxRectangle width="300" height="180" as="alternateBounds" />
          </mxGeometry>
        </mxCell>
        <mxCell id="CElqnwJNrXal9nOGzvZT-44" value="&lt;div&gt;nucleotide&lt;br&gt;&lt;/div&gt;" style="strokeWidth=1;html=1;shape=mxgraph.flowchart.database;whiteSpace=wrap;" parent="9NF7PJcUpYFdxQOIIQIQ-89" vertex="1">
          <mxGeometry x="67" y="98" width="60" height="41.5" as="geometry" />
        </mxCell>
        <mxCell id="9NF7PJcUpYFdxQOIIQIQ-83" value="analysis" style="swimlane;swimlaneHead=0;swimlaneBody=0;connectable=0;fillColor=none;startSize=40;collapsible=0;recursiveResize=0;expand=0;fontStyle=1;" parent="3nuBFxr9cyL0pnOWT2aG-3" vertex="1">
          <mxGeometry x="950" width="330" height="180" as="geometry">
            <mxRectangle width="330" height="180" as="alternateBounds" />
          </mxGeometry>
        </mxCell>
        <mxCell id="3nuBFxr9cyL0pnOWT2aG-11" value="visualization" style="swimlane;swimlaneHead=0;swimlaneBody=0;connectable=0;fillColor=none;startSize=40;collapsible=0;recursiveResize=0;expand=0;fontStyle=1;" parent="3nuBFxr9cyL0pnOWT2aG-3" vertex="1">
          <mxGeometry x="1280" width="300" height="180" as="geometry">
            <mxRectangle width="300" height="180" as="alternateBounds" />
          </mxGeometry>
        </mxCell>
        <mxCell id="3nuBFxr9cyL0pnOWT2aG-12" style="edgeStyle=orthogonalEdgeStyle;rounded=0;orthogonalLoop=1;jettySize=auto;html=1;" parent="3nuBFxr9cyL0pnOWT2aG-11" source="3nuBFxr9cyL0pnOWT2aG-13" target="3nuBFxr9cyL0pnOWT2aG-14" edge="1">
          <mxGeometry relative="1" as="geometry" />
        </mxCell>
        <mxCell id="3nuBFxr9cyL0pnOWT2aG-13" value="Drink latte" style="rounded=0;whiteSpace=wrap;html=1;" parent="3nuBFxr9cyL0pnOWT2aG-11" vertex="1">
          <mxGeometry x="20" y="60" width="90" height="40" as="geometry" />
        </mxCell>
        <mxCell id="3nuBFxr9cyL0pnOWT2aG-14" value="End" style="rounded=1;whiteSpace=wrap;html=1;arcSize=50;" parent="3nuBFxr9cyL0pnOWT2aG-11" vertex="1">
          <mxGeometry x="20" y="120" width="90" height="40" as="geometry" />
        </mxCell>
        <mxCell id="9NF7PJcUpYFdxQOIIQIQ-92" value="apptainer" style="shape=tableRow;horizontal=0;swimlaneHead=0;swimlaneBody=0;top=0;left=0;bottom=0;right=0;fillColor=none;points=[[0,0.5],[1,0.5]];portConstraint=eastwest;startSize=40;collapsible=0;recursiveResize=0;expand=0;fontStyle=1;" parent="3nuBFxr9cyL0pnOWT2aG-1" vertex="1">
          <mxGeometry y="220" width="1580" height="250" as="geometry" />
        </mxCell>
        <mxCell id="9NF7PJcUpYFdxQOIIQIQ-93" style="swimlane;swimlaneHead=0;swimlaneBody=0;connectable=0;fillColor=none;startSize=0;collapsible=0;recursiveResize=0;expand=0;fontStyle=1;" parent="9NF7PJcUpYFdxQOIIQIQ-92" vertex="1">
          <mxGeometry x="40" width="240" height="250" as="geometry">
            <mxRectangle width="240" height="250" as="alternateBounds" />
          </mxGeometry>
        </mxCell>
        <mxCell id="ZopNrPVhyXaILG_1VpYT-3" value="" style="edgeStyle=orthogonalEdgeStyle;rounded=0;orthogonalLoop=1;jettySize=auto;html=1;" parent="9NF7PJcUpYFdxQOIIQIQ-93" source="CcWdK4bwqoYezzGv7H-g-1" target="CcWdK4bwqoYezzGv7H-g-2" edge="1">
          <mxGeometry relative="1" as="geometry" />
        </mxCell>
        <mxCell id="ZopNrPVhyXaILG_1VpYT-63" value="" style="edgeStyle=orthogonalEdgeStyle;rounded=0;orthogonalLoop=1;jettySize=auto;html=1;" parent="9NF7PJcUpYFdxQOIIQIQ-93" source="CcWdK4bwqoYezzGv7H-g-1" target="CcWdK4bwqoYezzGv7H-g-2" edge="1">
          <mxGeometry relative="1" as="geometry" />
        </mxCell>
        <mxCell id="CcWdK4bwqoYezzGv7H-g-1" value="&amp;nbsp;fastp: polyG tail trim" style="rounded=0;whiteSpace=wrap;html=1;" parent="9NF7PJcUpYFdxQOIIQIQ-93" vertex="1">
          <mxGeometry x="23" y="122" width="70" height="40" as="geometry" />
        </mxCell>
        <mxCell id="CcWdK4bwqoYezzGv7H-g-2" value="seqtk: to fasta" style="rounded=0;whiteSpace=wrap;html=1;" parent="9NF7PJcUpYFdxQOIIQIQ-93" vertex="1">
          <mxGeometry x="150" y="122" width="60" height="40" as="geometry" />
        </mxCell>
        <mxCell id="Ww5jvLOxqZhoaD5zM2-h-84" value="HuronHarv02-; YumaCSoil1; YumaHarvC10&lt;div&gt;-YumaSoil633&lt;/div&gt;" style="shape=note;whiteSpace=wrap;html=1;backgroundOutline=1;fontColor=#000000;darkOpacity=0.05;fillColor=#FFF9B2;strokeColor=none;fillStyle=solid;direction=north;gradientDirection=north;gradientColor=#FFF2A1;shadow=1;size=20;pointerEvents=1;" parent="9NF7PJcUpYFdxQOIIQIQ-93" vertex="1">
          <mxGeometry x="140" y="166" width="80" height="45" as="geometry" />
        </mxCell>
        <mxCell id="9NF7PJcUpYFdxQOIIQIQ-94" value="" style="swimlane;swimlaneHead=0;swimlaneBody=0;connectable=0;fillColor=none;startSize=0;collapsible=0;recursiveResize=0;expand=0;fontStyle=1;" parent="9NF7PJcUpYFdxQOIIQIQ-92" vertex="1">
          <mxGeometry x="280" width="370" height="250" as="geometry">
            <mxRectangle width="370" height="250" as="alternateBounds" />
          </mxGeometry>
        </mxCell>
        <mxCell id="ZopNrPVhyXaILG_1VpYT-5" style="edgeStyle=orthogonalEdgeStyle;rounded=0;orthogonalLoop=1;jettySize=auto;html=1;" parent="9NF7PJcUpYFdxQOIIQIQ-94" source="3nuBFxr9cyL0pnOWT2aG-7" target="CElqnwJNrXal9nOGzvZT-34" edge="1">
          <mxGeometry relative="1" as="geometry" />
        </mxCell>
        <mxCell id="ZopNrPVhyXaILG_1VpYT-13" value="fasta" style="edgeLabel;html=1;align=center;verticalAlign=middle;resizable=0;points=[];" parent="ZopNrPVhyXaILG_1VpYT-5" vertex="1" connectable="0">
          <mxGeometry x="-0.0726" y="-1" relative="1" as="geometry">
            <mxPoint as="offset" />
          </mxGeometry>
        </mxCell>
        <mxCell id="3nuBFxr9cyL0pnOWT2aG-7" value="metaspades: assembly" style="rounded=0;whiteSpace=wrap;html=1;" parent="9NF7PJcUpYFdxQOIIQIQ-94" vertex="1">
          <mxGeometry x="5" y="25" width="90" height="40" as="geometry" />
        </mxCell>
        <mxCell id="ZopNrPVhyXaILG_1VpYT-37" style="edgeStyle=orthogonalEdgeStyle;rounded=0;orthogonalLoop=1;jettySize=auto;html=1;exitX=1;exitY=0.25;exitDx=0;exitDy=0;" parent="9NF7PJcUpYFdxQOIIQIQ-94" edge="1">
          <mxGeometry relative="1" as="geometry">
            <mxPoint x="220" y="28.000000000000114" as="sourcePoint" />
            <mxPoint x="245" y="28.000000000000114" as="targetPoint" />
          </mxGeometry>
        </mxCell>
        <mxCell id="CElqnwJNrXal9nOGzvZT-34" value="maxbin2: bin contigs" style="rounded=0;whiteSpace=wrap;html=1;" parent="9NF7PJcUpYFdxQOIIQIQ-94" vertex="1">
          <mxGeometry x="137" y="25" width="91" height="40" as="geometry" />
        </mxCell>
        <mxCell id="ZopNrPVhyXaILG_1VpYT-22" style="edgeStyle=orthogonalEdgeStyle;rounded=0;orthogonalLoop=1;jettySize=auto;html=1;" parent="9NF7PJcUpYFdxQOIIQIQ-94" source="CElqnwJNrXal9nOGzvZT-35" target="CElqnwJNrXal9nOGzvZT-34" edge="1">
          <mxGeometry relative="1" as="geometry" />
        </mxCell>
        <mxCell id="CElqnwJNrXal9nOGzvZT-35" value="&lt;div&gt;&lt;br&gt;&lt;/div&gt;checkm&amp;nbsp;marker gene, FragGeneScan, Pfam" style="strokeWidth=1;html=1;shape=mxgraph.flowchart.database;whiteSpace=wrap;" parent="9NF7PJcUpYFdxQOIIQIQ-94" vertex="1">
          <mxGeometry x="131" y="185" width="102.5" height="70" as="geometry" />
        </mxCell>
        <mxCell id="CElqnwJNrXal9nOGzvZT-45" value="blastn:" style="rounded=0;whiteSpace=wrap;html=1;" parent="9NF7PJcUpYFdxQOIIQIQ-94" vertex="1">
          <mxGeometry x="422" y="-143" width="90" height="40" as="geometry" />
        </mxCell>
        <mxCell id="zfVqb_5FsLYk3oloDmap-1" value="anvio contigs" style="rounded=0;whiteSpace=wrap;html=1;textOpacity=50;opacity=50;" parent="9NF7PJcUpYFdxQOIIQIQ-94" vertex="1">
          <mxGeometry x="282" y="215" width="90" height="40" as="geometry" />
        </mxCell>
        <mxCell id="zfVqb_5FsLYk3oloDmap-2" value="&lt;div&gt;&lt;br&gt;&lt;/div&gt;&lt;div&gt;anvio contigs db&lt;/div&gt;" style="strokeWidth=1;html=1;shape=mxgraph.flowchart.database;whiteSpace=wrap;textOpacity=50;opacity=50;" parent="9NF7PJcUpYFdxQOIIQIQ-94" vertex="1">
          <mxGeometry x="382" y="243" width="60" height="60" as="geometry" />
        </mxCell>
        <mxCell id="zfVqb_5FsLYk3oloDmap-3" value="anvi-setup-ncbi-cogs" style="shape=parallelogram;perimeter=parallelogramPerimeter;whiteSpace=wrap;html=1;fixedSize=1;textOpacity=50;opacity=50;" parent="9NF7PJcUpYFdxQOIIQIQ-94" vertex="1">
          <mxGeometry x="255" y="159" width="87" height="41" as="geometry" />
        </mxCell>
        <mxCell id="zfVqb_5FsLYk3oloDmap-4" value="anvi-setup-scg-taxonomy" style="shape=parallelogram;perimeter=parallelogramPerimeter;whiteSpace=wrap;html=1;fixedSize=1;textOpacity=50;opacity=50;" parent="9NF7PJcUpYFdxQOIIQIQ-94" vertex="1">
          <mxGeometry x="332" y="160" width="87" height="41" as="geometry" />
        </mxCell>
        <mxCell id="ZopNrPVhyXaILG_1VpYT-39" style="edgeStyle=orthogonalEdgeStyle;rounded=0;orthogonalLoop=1;jettySize=auto;html=1;entryX=0;entryY=0.5;entryDx=0;entryDy=0;exitX=0.954;exitY=0.616;exitDx=0;exitDy=0;exitPerimeter=0;" parent="9NF7PJcUpYFdxQOIIQIQ-94" source="ZopNrPVhyXaILG_1VpYT-34" target="CElqnwJNrXal9nOGzvZT-45" edge="1">
          <mxGeometry relative="1" as="geometry" />
        </mxCell>
        <mxCell id="ZopNrPVhyXaILG_1VpYT-53" value="read/&lt;div&gt;binned&lt;div&gt;fasta&lt;/div&gt;&lt;/div&gt;" style="edgeLabel;html=1;align=center;verticalAlign=middle;resizable=0;points=[];" parent="ZopNrPVhyXaILG_1VpYT-39" vertex="1" connectable="0">
          <mxGeometry x="-0.0428" y="1" relative="1" as="geometry">
            <mxPoint as="offset" />
          </mxGeometry>
        </mxCell>
        <mxCell id="ZopNrPVhyXaILG_1VpYT-34" value="" style="shape=waypoint;sketch=0;fillStyle=solid;size=6;pointerEvents=1;points=[];fillColor=none;resizable=0;rotatable=0;perimeter=centerPerimeter;snapToPoint=1;" parent="9NF7PJcUpYFdxQOIIQIQ-94" vertex="1">
          <mxGeometry x="235" y="17" width="20" height="20" as="geometry" />
        </mxCell>
        <mxCell id="Ww5jvLOxqZhoaD5zM2-h-87" value="apple orange peach" style="shape=note;whiteSpace=wrap;html=1;backgroundOutline=1;fontColor=#000000;darkOpacity=0.05;fillColor=#FFF9B2;strokeColor=none;fillStyle=solid;direction=north;gradientDirection=north;gradientColor=#FFF2A1;shadow=1;size=20;pointerEvents=1;" parent="9NF7PJcUpYFdxQOIIQIQ-94" vertex="1">
          <mxGeometry x="5" y="61" width="90" height="38" as="geometry" />
        </mxCell>
        <mxCell id="9NF7PJcUpYFdxQOIIQIQ-95" style="swimlane;swimlaneHead=0;swimlaneBody=0;connectable=0;fillColor=none;startSize=0;collapsible=0;recursiveResize=0;expand=0;fontStyle=1;" parent="9NF7PJcUpYFdxQOIIQIQ-92" vertex="1">
          <mxGeometry x="650" width="300" height="250" as="geometry">
            <mxRectangle width="300" height="250" as="alternateBounds" />
          </mxGeometry>
        </mxCell>
        <mxCell id="Ww5jvLOxqZhoaD5zM2-h-86" value="apple orange peach&lt;div&gt;&amp;nbsp;reads&lt;/div&gt;" style="shape=note;whiteSpace=wrap;html=1;backgroundOutline=1;fontColor=#000000;darkOpacity=0.05;fillColor=#FFF9B2;strokeColor=none;fillStyle=solid;direction=north;gradientDirection=north;gradientColor=#FFF2A1;shadow=1;size=20;pointerEvents=1;" parent="9NF7PJcUpYFdxQOIIQIQ-95" vertex="1">
          <mxGeometry x="151" y="201" width="58.65" height="46" as="geometry" />
        </mxCell>
        <mxCell id="CElqnwJNrXal9nOGzvZT-38" value="kraken-biom" style="rounded=0;whiteSpace=wrap;html=1;" parent="9NF7PJcUpYFdxQOIIQIQ-95" vertex="1">
          <mxGeometry x="65" y="211" width="81" height="32" as="geometry" />
        </mxCell>
        <mxCell id="CElqnwJNrXal9nOGzvZT-40" value="abricate:&lt;div&gt;args&lt;/div&gt;" style="rounded=0;whiteSpace=wrap;html=1;" parent="9NF7PJcUpYFdxQOIIQIQ-95" vertex="1">
          <mxGeometry x="193.5" y="74" width="70" height="40" as="geometry" />
        </mxCell>
        <mxCell id="CElqnwJNrXal9nOGzvZT-39" value="deeparg:&lt;div&gt;args&lt;/div&gt;" style="rounded=0;whiteSpace=wrap;html=1;" parent="9NF7PJcUpYFdxQOIIQIQ-95" vertex="1">
          <mxGeometry x="94" y="71" width="72" height="40" as="geometry" />
        </mxCell>
        <mxCell id="Ww5jvLOxqZhoaD5zM2-h-94" value="" style="edgeStyle=orthogonalEdgeStyle;rounded=0;orthogonalLoop=1;jettySize=auto;html=1;" parent="9NF7PJcUpYFdxQOIIQIQ-95" source="zfVqb_5FsLYk3oloDmap-6" target="CElqnwJNrXal9nOGzvZT-40" edge="1">
          <mxGeometry relative="1" as="geometry" />
        </mxCell>
        <mxCell id="zfVqb_5FsLYk3oloDmap-6" value="&lt;div&gt;CARD dbCAN3 AMRFinder ResFinder VFDB NCBI&lt;br&gt;&lt;/div&gt;" style="strokeWidth=1;html=1;shape=mxgraph.flowchart.database;whiteSpace=wrap;" parent="9NF7PJcUpYFdxQOIIQIQ-95" vertex="1">
          <mxGeometry x="166" y="131" width="125" height="60" as="geometry" />
        </mxCell>
        <mxCell id="Ww5jvLOxqZhoaD5zM2-h-95" style="edgeStyle=orthogonalEdgeStyle;rounded=0;orthogonalLoop=1;jettySize=auto;html=1;entryX=0.5;entryY=1;entryDx=0;entryDy=0;" parent="9NF7PJcUpYFdxQOIIQIQ-95" source="CElqnwJNrXal9nOGzvZT-41" target="CElqnwJNrXal9nOGzvZT-39" edge="1">
          <mxGeometry relative="1" as="geometry" />
        </mxCell>
        <mxCell id="CElqnwJNrXal9nOGzvZT-41" value="&lt;div&gt;dbCAN3&lt;br&gt;&lt;/div&gt;" style="strokeWidth=1;html=1;shape=mxgraph.flowchart.database;whiteSpace=wrap;" parent="9NF7PJcUpYFdxQOIIQIQ-95" vertex="1">
          <mxGeometry x="100" y="131" width="60" height="60" as="geometry" />
        </mxCell>
        <mxCell id="FpwTNCRYaSKa7mqGCcr8-14" value="" style="edgeStyle=orthogonalEdgeStyle;rounded=0;orthogonalLoop=1;jettySize=auto;html=1;entryX=0.5;entryY=0;entryDx=0;entryDy=0;" parent="9NF7PJcUpYFdxQOIIQIQ-95" source="FpwTNCRYaSKa7mqGCcr8-2" target="CElqnwJNrXal9nOGzvZT-40" edge="1">
          <mxGeometry relative="1" as="geometry" />
        </mxCell>
        <mxCell id="FpwTNCRYaSKa7mqGCcr8-2" value="" style="shape=waypoint;sketch=0;fillStyle=solid;size=6;pointerEvents=1;points=[];fillColor=none;resizable=0;rotatable=0;perimeter=centerPerimeter;snapToPoint=1;" parent="9NF7PJcUpYFdxQOIIQIQ-95" vertex="1">
          <mxGeometry x="218.5" y="45" width="20" height="20" as="geometry" />
        </mxCell>
        <mxCell id="9NF7PJcUpYFdxQOIIQIQ-96" style="swimlane;swimlaneHead=0;swimlaneBody=0;connectable=0;fillColor=none;startSize=0;collapsible=0;recursiveResize=0;expand=0;fontStyle=1;" parent="9NF7PJcUpYFdxQOIIQIQ-92" vertex="1">
          <mxGeometry x="950" width="330" height="250" as="geometry">
            <mxRectangle width="330" height="250" as="alternateBounds" />
          </mxGeometry>
        </mxCell>
        <mxCell id="CElqnwJNrXal9nOGzvZT-42" value="&lt;div&gt;&lt;br&gt;&lt;/div&gt;" style="strokeWidth=1;html=1;shape=mxgraph.flowchart.database;whiteSpace=wrap;" parent="9NF7PJcUpYFdxQOIIQIQ-96" vertex="1">
          <mxGeometry x="70" y="62" width="60" height="60" as="geometry" />
        </mxCell>
        <mxCell id="9NF7PJcUpYFdxQOIIQIQ-97" style="swimlane;swimlaneHead=0;swimlaneBody=0;connectable=0;fillColor=none;startSize=0;collapsible=0;recursiveResize=0;expand=0;fontStyle=1;" parent="9NF7PJcUpYFdxQOIIQIQ-92" vertex="1">
          <mxGeometry x="1280" width="300" height="250" as="geometry">
            <mxRectangle width="300" height="250" as="alternateBounds" />
          </mxGeometry>
        </mxCell>
        <mxCell id="ZopNrPVhyXaILG_1VpYT-36" style="edgeStyle=orthogonalEdgeStyle;rounded=0;orthogonalLoop=1;jettySize=auto;html=1;entryX=0.54;entryY=0.7;entryDx=0;entryDy=0;entryPerimeter=0;" parent="9NF7PJcUpYFdxQOIIQIQ-92" source="CcWdK4bwqoYezzGv7H-g-2" target="ZopNrPVhyXaILG_1VpYT-34" edge="1">
          <mxGeometry relative="1" as="geometry">
            <mxPoint x="260" y="83" as="sourcePoint" />
            <mxPoint x="525" y="72" as="targetPoint" />
            <Array as="points">
              <mxPoint x="525" y="83" />
            </Array>
          </mxGeometry>
        </mxCell>
        <mxCell id="ZopNrPVhyXaILG_1VpYT-56" value="fasta" style="edgeLabel;html=1;align=center;verticalAlign=middle;resizable=0;points=[];" parent="ZopNrPVhyXaILG_1VpYT-36" vertex="1" connectable="0">
          <mxGeometry x="-0.2836" y="2" relative="1" as="geometry">
            <mxPoint x="78" as="offset" />
          </mxGeometry>
        </mxCell>
        <mxCell id="FpwTNCRYaSKa7mqGCcr8-17" style="edgeStyle=orthogonalEdgeStyle;rounded=0;orthogonalLoop=1;jettySize=auto;html=1;exitDx=0;exitDy=0;" parent="9NF7PJcUpYFdxQOIIQIQ-92" source="FpwTNCRYaSKa7mqGCcr8-2" edge="1">
          <mxGeometry relative="1" as="geometry">
            <mxPoint x="879" y="55" as="targetPoint" />
          </mxGeometry>
        </mxCell>
        <mxCell id="FpwTNCRYaSKa7mqGCcr8-18" value="" style="edgeStyle=orthogonalEdgeStyle;rounded=0;orthogonalLoop=1;jettySize=auto;html=1;exitX=1;exitY=0.75;exitDx=0;exitDy=0;" parent="9NF7PJcUpYFdxQOIIQIQ-92" source="CElqnwJNrXal9nOGzvZT-34" target="FpwTNCRYaSKa7mqGCcr8-2" edge="1">
          <mxGeometry relative="1" as="geometry">
            <mxPoint x="1348" y="495" as="sourcePoint" />
            <mxPoint x="1719" y="495" as="targetPoint" />
          </mxGeometry>
        </mxCell>
        <mxCell id="FpwTNCRYaSKa7mqGCcr8-19" value="binned&lt;div&gt;fasta&lt;/div&gt;" style="edgeLabel;html=1;align=center;verticalAlign=middle;resizable=0;points=[];" parent="FpwTNCRYaSKa7mqGCcr8-18" vertex="1" connectable="0">
          <mxGeometry x="0.0032" y="-1" relative="1" as="geometry">
            <mxPoint as="offset" />
          </mxGeometry>
        </mxCell>
        <mxCell id="f-6RKssEHBS7RFYWHQIZ-3" style="edgeStyle=orthogonalEdgeStyle;rounded=0;orthogonalLoop=1;jettySize=auto;html=1;exitX=0.5;exitY=0;exitDx=0;exitDy=0;" edge="1" parent="9NF7PJcUpYFdxQOIIQIQ-92" source="CcWdK4bwqoYezzGv7H-g-1" target="3nuBFxr9cyL0pnOWT2aG-7">
          <mxGeometry relative="1" as="geometry">
            <Array as="points">
              <mxPoint x="98" y="50" />
            </Array>
          </mxGeometry>
        </mxCell>
        <mxCell id="9NF7PJcUpYFdxQOIIQIQ-104" value="mamba" style="shape=tableRow;horizontal=0;swimlaneHead=0;swimlaneBody=0;top=0;left=0;bottom=0;right=0;fillColor=none;points=[[0,0.5],[1,0.5]];portConstraint=eastwest;startSize=40;collapsible=0;recursiveResize=0;expand=0;fontStyle=1;" parent="3nuBFxr9cyL0pnOWT2aG-1" vertex="1">
          <mxGeometry y="470" width="1580" height="160" as="geometry" />
        </mxCell>
        <mxCell id="9NF7PJcUpYFdxQOIIQIQ-105" style="swimlane;swimlaneHead=0;swimlaneBody=0;connectable=0;fillColor=none;startSize=0;collapsible=0;recursiveResize=0;expand=0;fontStyle=1;" parent="9NF7PJcUpYFdxQOIIQIQ-104" vertex="1">
          <mxGeometry x="40" width="240" height="160" as="geometry">
            <mxRectangle width="240" height="160" as="alternateBounds" />
          </mxGeometry>
        </mxCell>
        <mxCell id="ZopNrPVhyXaILG_1VpYT-41" value="" style="shape=waypoint;sketch=0;fillStyle=solid;size=6;pointerEvents=1;points=[];fillColor=none;resizable=0;rotatable=0;perimeter=centerPerimeter;snapToPoint=1;" parent="9NF7PJcUpYFdxQOIIQIQ-105" vertex="1">
          <mxGeometry x="66" y="40" width="20" height="20" as="geometry" />
        </mxCell>
        <mxCell id="9NF7PJcUpYFdxQOIIQIQ-106" style="swimlane;swimlaneHead=0;swimlaneBody=0;connectable=0;fillColor=none;startSize=0;collapsible=0;recursiveResize=0;expand=0;fontStyle=1;" parent="9NF7PJcUpYFdxQOIIQIQ-104" vertex="1">
          <mxGeometry x="280" width="370" height="160" as="geometry">
            <mxRectangle width="370" height="160" as="alternateBounds" />
          </mxGeometry>
        </mxCell>
        <mxCell id="9NF7PJcUpYFdxQOIIQIQ-107" style="swimlane;swimlaneHead=0;swimlaneBody=0;connectable=0;fillColor=none;startSize=0;collapsible=0;recursiveResize=0;expand=0;fontStyle=1;" parent="9NF7PJcUpYFdxQOIIQIQ-104" vertex="1">
          <mxGeometry x="650" width="300" height="160" as="geometry">
            <mxRectangle width="300" height="160" as="alternateBounds" />
          </mxGeometry>
        </mxCell>
        <mxCell id="9NF7PJcUpYFdxQOIIQIQ-108" style="swimlane;swimlaneHead=0;swimlaneBody=0;connectable=0;fillColor=none;startSize=0;collapsible=0;recursiveResize=0;expand=0;fontStyle=1;" parent="9NF7PJcUpYFdxQOIIQIQ-104" vertex="1">
          <mxGeometry x="950" width="330" height="160" as="geometry">
            <mxRectangle width="330" height="160" as="alternateBounds" />
          </mxGeometry>
        </mxCell>
        <mxCell id="9NF7PJcUpYFdxQOIIQIQ-109" style="swimlane;swimlaneHead=0;swimlaneBody=0;connectable=0;fillColor=none;startSize=0;collapsible=0;recursiveResize=0;expand=0;fontStyle=1;" parent="9NF7PJcUpYFdxQOIIQIQ-104" vertex="1">
          <mxGeometry x="1280" width="300" height="160" as="geometry">
            <mxRectangle width="300" height="160" as="alternateBounds" />
          </mxGeometry>
        </mxCell>
        <mxCell id="3nuBFxr9cyL0pnOWT2aG-15" value="conda" style="shape=tableRow;horizontal=0;swimlaneHead=0;swimlaneBody=0;top=0;left=0;bottom=0;right=0;fillColor=none;points=[[0,0.5],[1,0.5]];portConstraint=eastwest;startSize=40;collapsible=0;recursiveResize=0;expand=0;fontStyle=1;" parent="3nuBFxr9cyL0pnOWT2aG-1" vertex="1">
          <mxGeometry y="630" width="1580" height="270" as="geometry" />
        </mxCell>
        <mxCell id="3nuBFxr9cyL0pnOWT2aG-16" value="" style="swimlane;swimlaneHead=0;swimlaneBody=0;connectable=0;fillColor=none;startSize=0;collapsible=0;recursiveResize=0;expand=0;fontStyle=1;fontSize=12;" parent="3nuBFxr9cyL0pnOWT2aG-15" vertex="1">
          <mxGeometry x="40" width="240" height="270" as="geometry">
            <mxRectangle width="240" height="270" as="alternateBounds" />
          </mxGeometry>
        </mxCell>
        <mxCell id="3nuBFxr9cyL0pnOWT2aG-6" value="&lt;div style=&quot;font-size: 11px;&quot;&gt;&lt;font style=&quot;font-size: 11px;&quot;&gt;metawrap read_qc:&lt;/font&gt;&lt;/div&gt;&lt;div style=&quot;font-size: 11px;&quot;&gt;&lt;font style=&quot;font-size: 11px;&quot;&gt;remove low quality &amp;amp; human-host reads&lt;/font&gt;&lt;/div&gt;" style="rounded=1;whiteSpace=wrap;html=1;arcSize=50;fontSize=9;" parent="3nuBFxr9cyL0pnOWT2aG-16" vertex="1">
          <mxGeometry x="2.5" y="7" width="106" height="60" as="geometry" />
        </mxCell>
        <mxCell id="CElqnwJNrXal9nOGzvZT-19" value="" style="edgeStyle=orthogonalEdgeStyle;rounded=0;orthogonalLoop=1;jettySize=auto;html=1;" parent="3nuBFxr9cyL0pnOWT2aG-16" source="CElqnwJNrXal9nOGzvZT-18" target="3nuBFxr9cyL0pnOWT2aG-6" edge="1">
          <mxGeometry relative="1" as="geometry" />
        </mxCell>
        <mxCell id="CElqnwJNrXal9nOGzvZT-18" value="&amp;nbsp;&lt;div&gt;bmtagger hg38&amp;nbsp;&lt;/div&gt;" style="strokeWidth=1;html=1;shape=mxgraph.flowchart.database;whiteSpace=wrap;" parent="3nuBFxr9cyL0pnOWT2aG-16" vertex="1">
          <mxGeometry x="25" y="100" width="60" height="60" as="geometry" />
        </mxCell>
        <mxCell id="3nuBFxr9cyL0pnOWT2aG-18" value="" style="swimlane;swimlaneHead=0;swimlaneBody=0;connectable=0;fillColor=none;startSize=0;collapsible=0;recursiveResize=0;expand=0;fontStyle=1;" parent="3nuBFxr9cyL0pnOWT2aG-15" vertex="1">
          <mxGeometry x="280" width="370" height="270" as="geometry">
            <mxRectangle width="370" height="270" as="alternateBounds" />
          </mxGeometry>
        </mxCell>
        <mxCell id="9NF7PJcUpYFdxQOIIQIQ-90" style="swimlane;swimlaneHead=0;swimlaneBody=0;connectable=0;fillColor=none;startSize=0;collapsible=0;recursiveResize=0;expand=0;fontStyle=1;" parent="3nuBFxr9cyL0pnOWT2aG-15" vertex="1">
          <mxGeometry x="650" width="300" height="270" as="geometry">
            <mxRectangle width="300" height="270" as="alternateBounds" />
          </mxGeometry>
        </mxCell>
        <mxCell id="3nuBFxr9cyL0pnOWT2aG-9" value="Request latte" style="rounded=0;whiteSpace=wrap;html=1;" parent="9NF7PJcUpYFdxQOIIQIQ-90" vertex="1">
          <mxGeometry x="450" y="-239" width="90" height="40" as="geometry" />
        </mxCell>
        <mxCell id="3nuBFxr9cyL0pnOWT2aG-10" value="Buy latte" style="rounded=0;whiteSpace=wrap;html=1;" parent="9NF7PJcUpYFdxQOIIQIQ-90" vertex="1">
          <mxGeometry x="580" y="-239" width="90" height="40" as="geometry" />
        </mxCell>
        <mxCell id="3nuBFxr9cyL0pnOWT2aG-21" value="Write details&lt;br&gt;on cup" style="shape=document;whiteSpace=wrap;html=1;boundedLbl=1;" parent="9NF7PJcUpYFdxQOIIQIQ-90" vertex="1">
          <mxGeometry x="450" y="10" width="90" height="60" as="geometry" />
        </mxCell>
        <mxCell id="3nuBFxr9cyL0pnOWT2aG-20" value="Accept&lt;br&gt;payment" style="rounded=0;whiteSpace=wrap;html=1;" parent="9NF7PJcUpYFdxQOIIQIQ-90" vertex="1">
          <mxGeometry x="580" y="20" width="90" height="40" as="geometry" />
        </mxCell>
        <mxCell id="3nuBFxr9cyL0pnOWT2aG-22" value="Make latte" style="shape=process;whiteSpace=wrap;html=1;backgroundOutline=1;" parent="9NF7PJcUpYFdxQOIIQIQ-90" vertex="1">
          <mxGeometry x="690" y="20" width="90" height="40" as="geometry" />
        </mxCell>
        <mxCell id="3nuBFxr9cyL0pnOWT2aG-25" value="" style="edgeStyle=orthogonalEdgeStyle;rounded=0;orthogonalLoop=1;jettySize=auto;html=1;" parent="9NF7PJcUpYFdxQOIIQIQ-90" source="3nuBFxr9cyL0pnOWT2aG-9" target="3nuBFxr9cyL0pnOWT2aG-21" edge="1">
          <mxGeometry relative="1" as="geometry" />
        </mxCell>
        <mxCell id="3nuBFxr9cyL0pnOWT2aG-27" value="" style="edgeStyle=orthogonalEdgeStyle;rounded=0;orthogonalLoop=1;jettySize=auto;html=1;" parent="9NF7PJcUpYFdxQOIIQIQ-90" source="3nuBFxr9cyL0pnOWT2aG-10" target="3nuBFxr9cyL0pnOWT2aG-20" edge="1">
          <mxGeometry relative="1" as="geometry" />
        </mxCell>
        <mxCell id="3nuBFxr9cyL0pnOWT2aG-19" value="" style="edgeStyle=orthogonalEdgeStyle;rounded=0;orthogonalLoop=1;jettySize=auto;html=1;" parent="9NF7PJcUpYFdxQOIIQIQ-90" source="3nuBFxr9cyL0pnOWT2aG-20" target="3nuBFxr9cyL0pnOWT2aG-22" edge="1">
          <mxGeometry relative="1" as="geometry" />
        </mxCell>
        <mxCell id="CElqnwJNrXal9nOGzvZT-37" value="kraken 2: taxanomy" style="rounded=0;whiteSpace=wrap;html=1;" parent="9NF7PJcUpYFdxQOIIQIQ-90" vertex="1">
          <mxGeometry x="40" y="30" width="90" height="40" as="geometry" />
        </mxCell>
        <mxCell id="ZopNrPVhyXaILG_1VpYT-29" value="" style="edgeStyle=orthogonalEdgeStyle;rounded=0;orthogonalLoop=1;jettySize=auto;html=1;" parent="9NF7PJcUpYFdxQOIIQIQ-90" source="CElqnwJNrXal9nOGzvZT-36" target="CElqnwJNrXal9nOGzvZT-37" edge="1">
          <mxGeometry relative="1" as="geometry" />
        </mxCell>
        <mxCell id="CElqnwJNrXal9nOGzvZT-36" value="&lt;div&gt;&lt;br&gt;&lt;/div&gt;kraken special&lt;div&gt;&lt;/div&gt;" style="strokeWidth=1;html=1;shape=mxgraph.flowchart.database;whiteSpace=wrap;" parent="9NF7PJcUpYFdxQOIIQIQ-90" vertex="1">
          <mxGeometry x="55" y="110" width="60" height="63" as="geometry" />
        </mxCell>
        <mxCell id="Ww5jvLOxqZhoaD5zM2-h-85" value="&amp;nbsp;reads" style="shape=note;whiteSpace=wrap;html=1;backgroundOutline=1;fontColor=#000000;darkOpacity=0.05;fillColor=#FFF9B2;strokeColor=none;fillStyle=solid;direction=north;gradientDirection=north;gradientColor=#FFF2A1;shadow=1;size=20;pointerEvents=1;" parent="9NF7PJcUpYFdxQOIIQIQ-90" vertex="1">
          <mxGeometry x="-16.5" y="17.5" width="52" height="45" as="geometry" />
        </mxCell>
        <mxCell id="9NF7PJcUpYFdxQOIIQIQ-84" style="swimlane;swimlaneHead=0;swimlaneBody=0;connectable=0;fillColor=none;startSize=0;collapsible=0;recursiveResize=0;expand=0;fontStyle=1;" parent="3nuBFxr9cyL0pnOWT2aG-15" vertex="1">
          <mxGeometry x="950" width="330" height="270" as="geometry">
            <mxRectangle width="330" height="270" as="alternateBounds" />
          </mxGeometry>
        </mxCell>
        <mxCell id="3nuBFxr9cyL0pnOWT2aG-23" value="" style="swimlane;swimlaneHead=0;swimlaneBody=0;connectable=0;fillColor=none;startSize=0;collapsible=0;recursiveResize=0;expand=0;fontStyle=1;" parent="3nuBFxr9cyL0pnOWT2aG-15" vertex="1">
          <mxGeometry x="1280" width="300" height="270" as="geometry">
            <mxRectangle width="300" height="270" as="alternateBounds" />
          </mxGeometry>
        </mxCell>
        <mxCell id="CElqnwJNrXal9nOGzvZT-15" value="" style="edgeStyle=orthogonalEdgeStyle;rounded=0;orthogonalLoop=1;jettySize=auto;html=1;" parent="3nuBFxr9cyL0pnOWT2aG-1" source="3nuBFxr9cyL0pnOWT2aG-6" edge="1">
          <mxGeometry relative="1" as="geometry" />
        </mxCell>
        <mxCell id="ZopNrPVhyXaILG_1VpYT-12" style="edgeStyle=orthogonalEdgeStyle;rounded=0;orthogonalLoop=1;jettySize=auto;html=1;" parent="3nuBFxr9cyL0pnOWT2aG-1" source="3nuBFxr9cyL0pnOWT2aG-7" target="ZopNrPVhyXaILG_1VpYT-9" edge="1">
          <mxGeometry relative="1" as="geometry" />
        </mxCell>
        <mxCell id="ZopNrPVhyXaILG_1VpYT-16" style="edgeStyle=orthogonalEdgeStyle;rounded=0;orthogonalLoop=1;jettySize=auto;html=1;" parent="3nuBFxr9cyL0pnOWT2aG-1" source="CElqnwJNrXal9nOGzvZT-34" target="ZopNrPVhyXaILG_1VpYT-14" edge="1">
          <mxGeometry relative="1" as="geometry" />
        </mxCell>
        <mxCell id="ZopNrPVhyXaILG_1VpYT-27" value="" style="edgeStyle=orthogonalEdgeStyle;rounded=0;orthogonalLoop=1;jettySize=auto;html=1;" parent="3nuBFxr9cyL0pnOWT2aG-1" source="CElqnwJNrXal9nOGzvZT-44" target="CElqnwJNrXal9nOGzvZT-45" edge="1">
          <mxGeometry relative="1" as="geometry" />
        </mxCell>
        <mxCell id="ZopNrPVhyXaILG_1VpYT-61" style="edgeStyle=orthogonalEdgeStyle;rounded=0;orthogonalLoop=1;jettySize=auto;html=1;" parent="3nuBFxr9cyL0pnOWT2aG-1" source="3nuBFxr9cyL0pnOWT2aG-6" target="CcWdK4bwqoYezzGv7H-g-1" edge="1">
          <mxGeometry relative="1" as="geometry">
            <Array as="points">
              <mxPoint x="95" y="410" />
              <mxPoint x="95" y="410" />
            </Array>
          </mxGeometry>
        </mxCell>
        <mxCell id="ZopNrPVhyXaILG_1VpYT-62" value="fastq" style="edgeLabel;html=1;align=center;verticalAlign=middle;resizable=0;points=[];" parent="ZopNrPVhyXaILG_1VpYT-61" vertex="1" connectable="0">
          <mxGeometry x="0.1119" y="-1" relative="1" as="geometry">
            <mxPoint as="offset" />
          </mxGeometry>
        </mxCell>
        <mxCell id="ZopNrPVhyXaILG_1VpYT-44" style="edgeStyle=orthogonalEdgeStyle;rounded=0;orthogonalLoop=1;jettySize=auto;html=1;exitX=0.75;exitY=1;exitDx=0;exitDy=0;" parent="3nuBFxr9cyL0pnOWT2aG-1" source="CcWdK4bwqoYezzGv7H-g-1" target="ZopNrPVhyXaILG_1VpYT-41" edge="1">
          <mxGeometry relative="1" as="geometry" />
        </mxCell>
        <mxCell id="ZopNrPVhyXaILG_1VpYT-28" style="edgeStyle=orthogonalEdgeStyle;rounded=0;orthogonalLoop=1;jettySize=auto;html=1;entryX=0.5;entryY=1;entryDx=0;entryDy=0;exitX=0.723;exitY=0.014;exitDx=0;exitDy=0;exitPerimeter=0;" parent="3nuBFxr9cyL0pnOWT2aG-1" source="CElqnwJNrXal9nOGzvZT-37" target="CElqnwJNrXal9nOGzvZT-38" edge="1">
          <mxGeometry relative="1" as="geometry" />
        </mxCell>
        <mxCell id="No26XOlGnSCpJHADi15Q-7" style="edgeStyle=orthogonalEdgeStyle;rounded=0;orthogonalLoop=1;jettySize=auto;html=1;entryX=0.25;entryY=0;entryDx=0;entryDy=0;" parent="1" target="CElqnwJNrXal9nOGzvZT-37" edge="1">
          <mxGeometry relative="1" as="geometry">
            <mxPoint x="720" y="700" as="sourcePoint" />
            <mxPoint x="900" y="750" as="targetPoint" />
          </mxGeometry>
        </mxCell>
        <mxCell id="No26XOlGnSCpJHADi15Q-2" style="edgeStyle=orthogonalEdgeStyle;rounded=0;orthogonalLoop=1;jettySize=auto;html=1;" parent="1" edge="1">
          <mxGeometry relative="1" as="geometry">
            <mxPoint x="720" y="700" as="sourcePoint" />
            <mxPoint x="720" y="700" as="targetPoint" />
          </mxGeometry>
        </mxCell>
        <mxCell id="ZopNrPVhyXaILG_1VpYT-48" style="edgeStyle=orthogonalEdgeStyle;rounded=0;orthogonalLoop=1;jettySize=auto;html=1;exitX=0.889;exitY=1.006;exitDx=0;exitDy=0;exitPerimeter=0;" parent="1" source="CElqnwJNrXal9nOGzvZT-34" edge="1">
          <mxGeometry relative="1" as="geometry">
            <mxPoint x="720" y="700" as="targetPoint" />
            <Array as="points">
              <mxPoint x="680" y="700" />
            </Array>
          </mxGeometry>
        </mxCell>
        <mxCell id="No26XOlGnSCpJHADi15Q-3" value="binned&lt;div&gt;fasta&lt;/div&gt;" style="edgeLabel;html=1;align=center;verticalAlign=middle;resizable=0;points=[];" parent="ZopNrPVhyXaILG_1VpYT-48" vertex="1" connectable="0">
          <mxGeometry x="-0.9423" relative="1" as="geometry">
            <mxPoint y="50" as="offset" />
          </mxGeometry>
        </mxCell>
        <mxCell id="No26XOlGnSCpJHADi15Q-6" style="edgeStyle=orthogonalEdgeStyle;rounded=0;orthogonalLoop=1;jettySize=auto;html=1;entryX=1;entryY=0.307;entryDx=0;entryDy=0;entryPerimeter=0;" parent="1" source="ZopNrPVhyXaILG_1VpYT-41" edge="1">
          <mxGeometry relative="1" as="geometry">
            <mxPoint x="720" y="700" as="targetPoint" />
          </mxGeometry>
        </mxCell>
        <mxCell id="No26XOlGnSCpJHADi15Q-8" value="fastq" style="edgeLabel;html=1;align=center;verticalAlign=middle;resizable=0;points=[];" parent="No26XOlGnSCpJHADi15Q-6" vertex="1" connectable="0">
          <mxGeometry x="0.1715" relative="1" as="geometry">
            <mxPoint as="offset" />
          </mxGeometry>
        </mxCell>
        <mxCell id="FpwTNCRYaSKa7mqGCcr8-1" value="" style="shape=waypoint;sketch=0;fillStyle=solid;size=6;pointerEvents=1;points=[];fillColor=none;resizable=0;rotatable=0;perimeter=centerPerimeter;snapToPoint=1;" parent="1" vertex="1">
          <mxGeometry x="900" y="570" width="20" height="20" as="geometry" />
        </mxCell>
      </root>
    </mxGraphModel>
  </diagram>
</mxfile>
